# xmcd
#
# Track frame offsets:
#	150
#	8385
#	19210
#	30612
#	39985
#	51425
#	62487
#	71530
#	84204
#	94977
#
# Disc length: 1446 seconds
#
# Revision: 0
# Processed by: cddbd v1.5.1PL0 Copyright (c) Steve Scherf et al.
# Submitted via: dBpowerAMP V4.0
#
DISCID=7005a40a
DTITLE=Willie Nelson - Country Legends
DYEAR=1900
DGENRE=Country
TTITLE0=You Wouldn't Cross the Street to Say Goodbye
TTITLE1=Blame It on the Times
TTITLE2=I'm Going to Lose a Lot of Teardrops
TTITLE3=One Step Beyond
TTITLE4=Suffering In Silence
TTITLE5=Go Away
TTITLE6=Waiting Time
TTITLE7=I Just Don't Understand
TTITLE8=I Feel Sorry For Him
TTITLE9=You'll Always Have Someone
EXTD=
EXTT0=
EXTT1=
EXTT2=
EXTT3=
EXTT4=
EXTT5=
EXTT6=
EXTT7=
EXTT8=
EXTT9=
PLAYORDER=
